<svg width="128" height="128" viewBox="0 0 128 128" fill="none" xmlns="http://www.w3.org/2000/svg">
<rect width="128" height="128" fill="#080808"/>
<path d="M66.7254 73.4246C66.7254 75.2444 66.3777 76.962 65.6825 78.5774C65.0077 80.1724 64.0671 81.573 62.8607 82.7795C61.6747 83.9654 60.274 84.906 58.6587 85.6013C57.0637 86.276 55.3563 86.6134 53.5365 86.6134C51.9006 86.6134 50.3262 86.3272 48.813 85.7546C47.3203 85.1821 45.9708 84.3437 44.7643 83.2395C43.5579 84.3437 42.1981 85.1821 40.685 85.7546C39.1718 86.3272 37.5973 86.6134 35.9615 86.6134C34.1417 86.6134 32.424 86.276 30.8087 85.6013C29.2137 84.906 27.813 83.9654 26.6066 82.7795C25.4206 81.573 24.48 80.1724 23.7848 78.5774C23.11 76.962 22.7726 75.2444 22.7726 73.4246V42.0166H31.5754V73.4246C31.5754 74.038 31.6879 74.6208 31.9128 75.1728C32.1378 75.7045 32.4445 76.1748 32.833 76.5838C33.2419 76.9723 33.7122 77.279 34.2439 77.5039C34.7755 77.7288 35.3481 77.8413 35.9615 77.8413C36.575 77.8413 37.1475 77.7288 37.6791 77.5039C38.2108 77.279 38.6709 76.9723 39.0594 76.5838C39.4683 76.1748 39.7853 75.7045 40.0102 75.1728C40.2351 74.6208 40.3476 74.038 40.3476 73.4246V42.0166H49.1504V73.4246C49.1504 74.038 49.2629 74.6208 49.4878 75.1728C49.7127 75.7045 50.0194 76.1748 50.4079 76.5838C50.8169 76.9723 51.2872 77.279 51.8188 77.5039C52.3505 77.7288 52.923 77.8413 53.5365 77.8413C54.1499 77.8413 54.7224 77.7288 55.2541 77.5039C55.7857 77.279 56.2458 76.9723 56.6343 76.5838C57.0433 76.1748 57.3602 75.7045 57.5851 75.1728C57.8305 74.6208 57.9532 74.038 57.9532 73.4246V42.0166H66.7254V73.4246ZM72.0316 55.2055C72.0316 53.3856 72.3792 51.6782 73.0744 50.0833C73.7696 48.4884 74.7102 47.0979 75.8962 45.9119C77.1026 44.7055 78.5033 43.7547 80.0983 43.0595C81.6932 42.3642 83.4006 42.0166 85.2205 42.0166H105.403V50.8194H85.2205C84.607 50.8194 84.0345 50.9319 83.5028 51.1568C82.9712 51.3817 82.5009 51.6987 82.0919 52.1076C81.7034 52.4961 81.3967 52.9562 81.1718 53.4879C80.9469 54.0195 80.8344 54.5921 80.8344 55.2055C80.8344 55.8189 80.9469 56.4017 81.1718 56.9538C81.3967 57.4854 81.7034 57.9557 82.0919 58.3647C82.5009 58.7532 82.9712 59.0599 83.5028 59.2848C84.0345 59.5098 84.607 59.6222 85.2205 59.6222H94.0233C95.8431 59.6222 97.5505 59.9698 99.1455 60.6651C100.761 61.3399 102.162 62.2805 103.348 63.4869C104.554 64.6729 105.495 66.0735 106.169 67.6889C106.865 69.2839 107.212 70.9913 107.212 72.8111C107.212 74.631 106.865 76.3384 106.169 77.9333C105.495 79.5282 104.554 80.9289 103.348 82.1354C102.162 83.3213 100.761 84.2619 99.1455 84.9572C97.5505 85.6524 95.8431 86 94.0233 86H74.4853V77.1972H94.0233C94.6367 77.1972 95.2092 77.0847 95.7409 76.8598C96.2725 76.6349 96.7326 76.3282 97.1211 75.9396C97.5301 75.5307 97.847 75.0604 98.072 74.5287C98.2969 73.9971 98.4093 73.4246 98.4093 72.8111C98.4093 72.1977 98.2969 71.6251 98.072 71.0935C97.847 70.5619 97.5301 70.1018 97.1211 69.7133C96.7326 69.3043 96.2725 68.9874 95.7409 68.7624C95.2092 68.5375 94.6367 68.425 94.0233 68.425H85.2205C83.4006 68.425 81.6932 68.0774 80.0983 67.3822C78.5033 66.687 77.1026 65.7464 75.8962 64.5604C74.7102 63.354 73.7696 61.9533 73.0744 60.3584C72.3792 58.743 72.0316 57.0254 72.0316 55.2055Z" fill="white"/>
</svg>
